<?xml version="1.0" standalone="no"?><!DOCTYPE svg PUBLIC "-//W3C//DTD SVG 1.1//EN" "http://www.w3.org/Graphics/SVG/1.1/DTD/svg11.dtd"><svg t="1638496901338" class="icon" viewBox="0 0 1024 1024" version="1.1" xmlns="http://www.w3.org/2000/svg" p-id="6120" xmlns:xlink="http://www.w3.org/1999/xlink" width="200" height="200"><defs><style type="text/css"></style></defs><path d="M620.9 67.2H236.5c-30.3 0-54.9 25-54.9 55.9v782.7c0 30.9 24.6 55.9 54.9 55.9h549c30.3 0 54.9-25 54.9-55.9v-615L620.9 67.2z" fill="#61CFEA" p-id="6121"></path><path d="M802 925.9H220.1V109.7h379.6v218.9H802z" fill="#FFFFFF" p-id="6122"></path><path d="M802 922.6H220.1V106.4h379.6v218.8H802z" fill="#6CDEEA" p-id="6123"></path><path d="M416.1 606.6v25.4h-64.9v169.6h-29.5V632h-65.2v-25.4h159.6zM462.8 606.6l47.5 70.5 47.5-70.5h36.4L528 700.8l70.8 100.8h-36.4l-52.1-77.2-52.1 77.2h-36.4l70.1-100.8-65.5-94.2h36.4zM764 606.6v25.4h-64.9v169.6h-29.5V632h-65.2v-25.4H764z" fill="#FFFFFF" p-id="6124"></path></svg>