<?xml version="1.0" standalone="no"?><!DOCTYPE svg PUBLIC "-//W3C//DTD SVG 1.1//EN" "http://www.w3.org/Graphics/SVG/1.1/DTD/svg11.dtd"><svg t="1655796134915" class="icon" viewBox="0 0 1024 1024" version="1.1" xmlns="http://www.w3.org/2000/svg" p-id="8242" xmlns:xlink="http://www.w3.org/1999/xlink" width="200" height="200"><defs><style type="text/css">@font-face { font-family: feedback-iconfont; src: url("//at.alicdn.com/t/font_1031158_u69w8yhxdu.woff2?t=1630033759944") format("woff2"), url("//at.alicdn.com/t/font_1031158_u69w8yhxdu.woff?t=1630033759944") format("woff"), url("//at.alicdn.com/t/font_1031158_u69w8yhxdu.ttf?t=1630033759944") format("truetype"); }
</style></defs><path d="M684.288 398.613333H339.712C163.882667 398.613333 21.333333 541.162667 21.333333 716.992a109.269333 109.269333 0 0 0 109.269334 109.269333h762.816a109.269333 109.269333 0 0 0 109.269333-109.269333C1002.666667 541.162667 860.117333 398.613333 684.288 398.613333z" fill="#02C9ED" p-id="8243"></path><path d="M895.936 0H128.042667A128.213333 128.213333 0 0 0 0 128.042667v591.466666a128.213333 128.213333 0 0 0 128.042667 128.064h283.861333a20.949333 20.949333 0 0 0-9.450667 17.258667 21.333333 21.333333 0 0 0 21.333334 21.333333h198.485333a21.333333 21.333333 0 0 0 21.333333-21.333333 20.970667 20.970667 0 0 0-9.450666-17.258667h261.781333A128.213333 128.213333 0 0 0 1024 719.509333V128.042667A128.213333 128.213333 0 0 0 895.936 0zM981.333333 719.530667a85.504 85.504 0 0 1-85.397333 85.397333H128.042667A85.504 85.504 0 0 1 42.666667 719.530667V128.042667A85.461333 85.461333 0 0 1 128.042667 42.666667h767.893333A85.482667 85.482667 0 0 1 981.333333 128.042667v591.488zM732.522667 981.333333H291.477333a21.333333 21.333333 0 1 0 0 42.666667h441.045334a21.333333 21.333333 0 1 0 0-42.666667z" p-id="8244"></path><path d="M881.578667 204.778667a21.333333 21.333333 0 0 0-26.261334 14.848L761.301333 558.08 586.730667 150.741333c-3.370667-7.872-10.474667-13.333333-19.754667-12.928a21.333333 21.333333 0 0 0-19.584 13.205334l-141.248 343.082666-131.690667-150.528a21.226667 21.226667 0 0 0-19.776-6.954666 21.269333 21.269333 0 0 0-16.170666 13.333333L128.234667 636.650667a21.333333 21.333333 0 1 0 39.808 15.317333l97.578666-253.696 131.093334 149.802667a21.354667 21.354667 0 0 0 35.776-5.909334l135.04-327.957333 178.474666 416.448c3.541333 8.32 11.242667 13.184 21.034667 12.885333a21.333333 21.333333 0 0 0 19.114667-15.573333l110.272-396.949333a21.312 21.312 0 0 0-14.848-26.24z" p-id="8245"></path></svg>