<?xml version="1.0" standalone="no"?><!DOCTYPE svg PUBLIC "-//W3C//DTD SVG 1.1//EN" "http://www.w3.org/Graphics/SVG/1.1/DTD/svg11.dtd"><svg t="1652513706532" class="icon" viewBox="0 0 1024 1024" version="1.1" xmlns="http://www.w3.org/2000/svg" p-id="7465" xmlns:xlink="http://www.w3.org/1999/xlink" width="200" height="200"><defs><style type="text/css">@font-face { font-family: feedback-iconfont; src: url("//at.alicdn.com/t/font_1031158_u69w8yhxdu.woff2?t=1630033759944") format("woff2"), url("//at.alicdn.com/t/font_1031158_u69w8yhxdu.woff?t=1630033759944") format("woff"), url("//at.alicdn.com/t/font_1031158_u69w8yhxdu.ttf?t=1630033759944") format("truetype"); }
</style></defs><path d="M582.111319 729.87234H430.98417c0 71.331404-2.570894 118.914723-55.154383 130.723405h261.446809c-52.583489-11.808681-55.165277-59.392-55.165277-130.723405z" fill="#D0D3D6" p-id="7466"></path><path d="M427.988426 795.234043h157.129531c-2.625362-18.584511-2.995745-40.491574-2.995744-65.361703H430.98417c0 24.870128-0.370383 46.777191-2.995744 65.361703z" fill="#BDC3C7" p-id="7467"></path><path d="M103.489362 718.978723c0 23.965957 19.608511 43.574468 43.574468 43.574468h729.87234c23.965957 0 43.574468-19.608511 43.574468-43.574468v-54.468085h-817.021276v54.468085z" fill="#ECF0F1" p-id="7468"></path><path d="M876.93617 152.510638h-729.87234c-23.965957 0-43.574468 19.608511-43.574468 43.574468v468.425532h817.021276V196.085106c0-23.965957-19.608511-43.574468-43.574468-43.574468z" fill="#192730" p-id="7469"></path><path d="M136.170213 185.191489h751.659574v446.638298h-751.659574z" fill="#213140" p-id="7470"></path><path d="M920.510638 196.085106c0-23.965957-19.608511-43.574468-43.574468-43.574468H460.8l459.710638 458.817362V196.085106z" fill="#375667" opacity=".4" p-id="7471"></path><path d="M532.120511 713.531915a20.120511 20.120511 0 1 1-40.241022 0 20.120511 20.120511 0 0 1 40.241022 0z" fill="#192730" p-id="7472"></path><path d="M364.93617 860.595745h283.234043v10.893617h-283.234043z" fill="#BDC3C7" p-id="7473"></path></svg>