<?xml version="1.0" standalone="no"?><!DOCTYPE svg PUBLIC "-//W3C//DTD SVG 1.1//EN" "http://www.w3.org/Graphics/SVG/1.1/DTD/svg11.dtd"><svg t="1635579359937" class="icon" viewBox="0 0 1024 1024" version="1.1" xmlns="http://www.w3.org/2000/svg" p-id="10146" xmlns:xlink="http://www.w3.org/1999/xlink" width="200" height="200"><defs><style type="text/css"></style></defs><path d="M512 204.2h-0.5c-19.4 0-31.5 20.8-22.2 37.8 14.8 27 23 58.1 22.6 91.2-1.3 97.6-79.4 178.3-176.9 182.6-35.6 1.6-69.2-7-98-23-14.7-8.1-32.9 2-32.9 18.8v0.4c0 171.4 140.2 310.2 312.2 307.8 165.8-2.3 301.1-137.6 303.4-303.4 2.5-172-136.3-312.2-307.7-312.2z m0 0" fill="#FFC152" p-id="10147"></path><path d="M589.6 285.1m-23.3 0a23.3 23.3 0 1 0 46.6 0 23.3 23.3 0 1 0-46.6 0Z" fill="#FF6994" p-id="10148"></path><path d="M727 589.7c-4.3 5.9-11.5 9-18.7 8.2-7.3-0.8-13.5-5.4-16.4-12.1-2.9-6.7-2-14.4 2.3-20.3 48.6-65.9 24.5-166.5-53.8-224.2-9.1-6.7-11-19.5-4.3-28.6 6.7-9.1 19.5-11 28.6-4.3C761 379.4 789 505.6 727 589.7z" fill="#FFFFFF" p-id="10149"></path></svg>