<?xml version="1.0" standalone="no"?><!DOCTYPE svg PUBLIC "-//W3C//DTD SVG 1.1//EN" "http://www.w3.org/Graphics/SVG/1.1/DTD/svg11.dtd"><svg t="1635571929281" class="icon" viewBox="0 0 1024 1024" version="1.1" xmlns="http://www.w3.org/2000/svg" p-id="4582" xmlns:xlink="http://www.w3.org/1999/xlink" width="200" height="200"><defs><style type="text/css"></style></defs><path d="M270.387022 463.499421A226.484357 226.484357 0 1 1 496.871379 689.983778a226.484357 226.484357 0 0 1-226.484357-226.484357z" fill="#FFDA6A" p-id="4583"></path><path d="M496.12978 823.76825a16.31518 16.31518 0 0 1-8.899189-2.966396L444.959444 790.396292a16.611819 16.611819 0 0 1-3.707996-22.989571 16.760139 16.760139 0 0 1 23.137892-3.856315l33.371958 24.176129 36.190035-22.247972a16.463499 16.463499 0 0 1 16.908458 28.329085l-46.127462 27.735805a16.611819 16.611819 0 0 1-8.602549 2.224797z m193.705678-88.10197a16.463499 16.463499 0 0 1-4.746234-32.482039l41.677868-10.382387 6.674391-40.19467a16.463499 16.463499 0 0 1 32.630359 5.339514l-8.454229 51.318655a16.908459 16.908459 0 0 1-12.310545 13.348784l-52.208574 13.052143zM311.471611 733.738123a12.013905 12.013905 0 0 1-3.263036 0l-51.318656-8.45423a16.463499 16.463499 0 0 1-13.348783-12.310544l-13.052144-52.060255a16.463499 16.463499 0 1 1 31.59212-8.30591l10.382387 41.826188 40.49131 6.526072a16.463499 16.463499 0 0 1-1.483198 32.778679z m187.772885-17.650058a251.253766 251.253766 0 1 1 250.660487-251.253766 251.253766 251.253766 0 0 1-251.105446 251.253766z m0-32.926999a218.326767 218.326767 0 1 0-218.771727-218.326767 218.326767 218.326767 0 0 0 218.326768 218.326767z m-312.954809-156.180765a16.01854 16.01854 0 0 1-14.831981-7.86095l-27.735806-46.275782a16.463499 16.463499 0 0 1 0.741599-18.095017l29.663963-42.271148a16.463499 16.463499 0 0 1 26.697567 19.281576L177.983778 465.279258l22.099652 36.783314a16.463499 16.463499 0 0 1-5.636153 22.544612 14.831981 14.831981 0 0 1-8.15759 2.373117z m625.019699 0a14.831981 14.831981 0 0 1-7.71263-2.373117 16.463499 16.463499 0 0 1-5.636153-22.544612l22.099652-36.783314-23.87949-33.520278a16.16686 16.16686 0 0 1 3.707995-22.841251 16.463499 16.463499 0 0 1 22.989571 3.559675l30.405562 42.271148a16.31518 16.31518 0 0 1 0 18.095017L826.141367 519.119351a16.01854 16.01854 0 0 1-14.831981 7.86095zM338.910776 470.173812a16.463499 16.463499 0 0 1-14.831981-17.501738c3.263036-50.577057 19.429896-90.030127 49.242178-117.469293a185.103129 185.103129 0 0 1 118.655852-43.012746 16.463499 16.463499 0 1 1 1.779838 32.926999c-44.495944 2.373117-76.533024 14.090382-98.780997 34.410197s-35.745075 50.577057-38.563152 95.221321a16.611819 16.611819 0 0 1-17.501738 15.42526zM749.015064 294.414832a16.611819 16.611819 0 0 1-14.831982-13.793743l-7.41599-40.639629-41.677868-10.382387a16.463499 16.463499 0 0 1 8.00927-32.03708l52.208574 13.052144a16.760139 16.760139 0 0 1 12.310545 13.348783l8.454229 51.318656a16.908459 16.908459 0 0 1-13.645423 18.984936z m-504.28737-1.928158a12.310545 12.310545 0 0 1-3.263036 0 16.31518 16.31518 0 0 1-12.013905-20.023175l13.052144-52.208574a16.760139 16.760139 0 0 1 13.348783-12.310545l51.318656-8.30591a16.463499 16.463499 0 1 1 5.191194 32.48204l-40.49131 6.674392-10.382387 41.677867a16.463499 16.463499 0 0 1-16.16686 12.013905z m209.872538-120.287369a16.463499 16.463499 0 0 1-10.234067-29.663963l42.271147-29.663963a16.463499 16.463499 0 0 1 18.095017 0l46.127462 27.735805a16.31518 16.31518 0 0 1 5.636153 22.544612 16.463499 16.463499 0 0 1-22.544611 5.784473l-36.783314-22.247972-32.778679 22.396292a17.056779 17.056779 0 0 1-9.195829 3.114716z" fill="#333333" p-id="4584"></path></svg>