<?xml version="1.0" standalone="no"?><!DOCTYPE svg PUBLIC "-//W3C//DTD SVG 1.1//EN" "http://www.w3.org/Graphics/SVG/1.1/DTD/svg11.dtd"><svg t="1655715563348" class="icon" viewBox="0 0 1024 1024" version="1.1" xmlns="http://www.w3.org/2000/svg" p-id="5874" xmlns:xlink="http://www.w3.org/1999/xlink" width="200" height="200"><defs><style type="text/css">@font-face { font-family: feedback-iconfont; src: url("//at.alicdn.com/t/font_1031158_u69w8yhxdu.woff2?t=1630033759944") format("woff2"), url("//at.alicdn.com/t/font_1031158_u69w8yhxdu.woff?t=1630033759944") format("woff"), url("//at.alicdn.com/t/font_1031158_u69w8yhxdu.ttf?t=1630033759944") format("truetype"); }
</style></defs><path d="M656.8448 84.352H367.1552c-16.7168 0-30.336 13.6192-30.336 30.336v199.7824c0 16.7168 13.6192 30.336 30.336 30.336h95.1552v42.9056h-30.2336a9.6 9.6 0 0 0 0 19.2h159.872a9.6 9.6 0 0 0 0-19.2h-30.2336v-42.9056h95.1552c16.7168 0 30.336-13.5936 30.336-30.336V114.688a30.4128 30.4128 0 0 0-30.3616-30.336z m-114.3552 303.36h-61.0048v-42.9056h61.0048v42.9056z m125.4912-73.2416c0 6.144-4.992 11.136-11.136 11.136H367.1552a11.136 11.136 0 0 1-11.136-11.136V114.688c0-6.144 4.992-11.136 11.136-11.136h289.6896c6.144 0 11.136 4.992 11.136 11.136v199.7824z" fill="#008CFF" p-id="5875"></path><path d="M388.608 131.8912v165.3504h246.784V131.8912h-246.784z m71.936 143.3088h-37.888V237.1584h37.888v38.0416z m70.4768 0h-38.0416V237.1584h38.0416v38.0416z m70.3232 0h-37.888V237.1584h37.888v38.0416z" fill="#1AC678" p-id="5876"></path><path d="M397.5168 458.9824H107.8272c-16.7168 0-30.336 13.6192-30.336 30.336v199.7824c0 16.7168 13.6192 30.336 30.336 30.336h95.1552v42.9056H172.7488a9.6 9.6 0 0 0 0 19.2H332.6208a9.6 9.6 0 0 0 0-19.2h-30.2592v-42.9056h95.1552c16.7168 0 30.336-13.5936 30.336-30.336v-199.7824c0-16.7424-13.5936-30.336-30.336-30.336z m-114.3552 303.3344H222.1824v-42.9056h60.9792v42.9056z m125.4912-73.216c0 6.144-4.992 11.136-11.136 11.136H107.8272a11.136 11.136 0 0 1-11.136-11.136v-199.7824c0-6.144 4.992-11.136 11.136-11.136h289.6896c6.144 0 11.136 4.992 11.136 11.136v199.7824z" fill="#008CFF" p-id="5877"></path><path d="M201.2416 649.8304H163.328v-38.0416h37.888v38.0416z m70.4512 0H233.6512v-38.0416h38.0416v38.0416z m70.3232 0h-37.888v-38.0416h37.888v38.0416z" fill="#008CFF" p-id="5878"></path><path d="M916.1728 458.9824H626.4832c-16.7168 0-30.336 13.6192-30.336 30.336v199.7824c0 16.7168 13.6192 30.336 30.336 30.336h95.1552v42.9056h-30.2592a9.6 9.6 0 0 0 0 19.2h159.872a9.6 9.6 0 0 0 0-19.2h-30.2336v-42.9056h95.1552c16.7168 0 30.336-13.5936 30.336-30.336v-199.7824c0-16.7424-13.6192-30.336-30.336-30.336z m-114.3552 303.3344h-60.9792v-42.9056h60.9792v42.9056z m125.4912-73.216c0 6.144-4.992 11.136-11.136 11.136H626.4832a11.136 11.136 0 0 1-11.136-11.136v-199.7824c0-6.144 4.992-11.136 11.136-11.136h289.6896c6.144 0 11.136 4.992 11.136 11.136v199.7824z" fill="#008CFF" p-id="5879"></path><path d="M719.872 649.8304h-37.888v-38.0416h37.888v38.0416z m70.4768 0h-38.0416v-38.0416h38.0416v38.0416z m70.3232 0h-37.888v-38.0416h37.888v38.0416z" fill="#008CFF" p-id="5880"></path><path d="M512 804.3776a6.4 6.4 0 0 1-6.4-6.4V448.0768a6.4 6.4 0 0 1 12.8 0V797.952a6.4 6.4 0 0 1-6.4 6.4256z" fill="#00CFFF" p-id="5881"></path><path d="M771.328 808.0128a6.4 6.4 0 0 0-6.4 6.4v29.7216a24.192 24.192 0 0 1-24.0896 24.1664l-168.2944 0.2048a61.0816 61.0816 0 0 0-60.5184-54.4768 61.056 61.056 0 0 0-60.5184 54.4768l-168.2688-0.256a24.2176 24.2176 0 0 1-24.1408-24.1664v-29.6704a6.4 6.4 0 0 0-12.8 0v29.6704c0 20.352 16.5632 36.9408 36.9152 36.9664l168.2176 0.256a61.056 61.056 0 0 0 60.5952 55.1424 61.0816 61.0816 0 0 0 60.5952-55.1424l168.2688-0.2048a37.0176 37.0176 0 0 0 36.864-36.9664v-29.7216a6.4512 6.4512 0 0 0-6.4256-6.4zM512 923.648a48.4608 48.4608 0 0 1-48.4096-48.4096c0-26.6752 21.7088-48.4096 48.4096-48.4096s48.4096 21.7088 48.4096 48.4096A48.4608 48.4608 0 0 1 512 923.648z" fill="#00CFFF" p-id="5882"></path></svg>