<?xml version="1.0" standalone="no"?><!DOCTYPE svg PUBLIC "-//W3C//DTD SVG 1.1//EN" "http://www.w3.org/Graphics/SVG/1.1/DTD/svg11.dtd"><svg t="1636083080265" class="icon" viewBox="0 0 1024 1024" version="1.1" xmlns="http://www.w3.org/2000/svg" p-id="26534" xmlns:xlink="http://www.w3.org/1999/xlink" width="200" height="200"><defs><style type="text/css"></style></defs><path d="M498.1 511.8m-348.1 0a348.1 348.1 0 1 0 696.2 0 348.1 348.1 0 1 0-696.2 0Z" fill="#E5ECFF" p-id="26535"></path><path d="M415.3 743.9c-99.5-49.7-240.4-41.4-149.2-232.1 31.8-66.6-28.2-99.4-98.3-109.8-11.5 34.5-17.8 71.4-17.8 109.8 0 185.1 144.5 336.3 326.8 347.4 3.3-37.6-5.1-87.1-61.5-115.3zM630.8 487s41.4 49.7-24.9 66.3c-66.3 16.6-107.7 49.7-91.2 116s0 66.3 91.2 58 116-91.2 116-107.7c0-16.6 24.9-107.7-24.9-132.6-49.7-24.9-58-41.5-66.2 0z" fill="#5B79FB" p-id="26536"></path><path d="M957.9 440.1c-6.3-45.3-59.4-77.8-153.5-94.1h-0.2c6.5 12 12.3 24.4 17.4 37.2 61.7 13.7 99.9 36.1 103.5 61.5 4 28.4-34.6 65.1-103.3 98.2-76.2 36.8-180.7 65.8-294.2 81.7-113.5 15.9-221.9 16.7-305.3 2.3-75.1-13-122.4-37.7-126.3-66-2.9-20.9 17.3-46.3 55.7-71.5-0.2-0.3-0.5-0.5-0.7-0.7 0.9-13.9 2.7-27.5 5.2-40.8-66.5 37.4-98.6 77.8-93 117.7 6.3 45.3 59.4 77.8 153.5 94.1 41.4 7.1 88.5 10.7 139.1 10.7 55.5 0 115.3-4.3 176.4-12.8 116.8-16.4 224.7-46.4 304-84.7 85.9-41.6 128-87.5 121.7-132.8z" fill="#FF7E71" p-id="26537"></path><path d="M514.9 164.1c-5.5-0.2-11.1-0.4-16.7-0.4-125.4 0-235.2 66.3-296.5 165.7 53.4-0.6 97.9-25.6 110.5-59.3 9.3 0.9 18.8 1.4 28.5 1.4 59.3 0 111.9-17.4 145.1-44.3 9.1 6.9 22.4 11.2 37.2 11.2 0.6 0 1.1 0 1.6-0.1 5.4 26 29.6 98.3 130.6 95.8 0 0 61.5-1.5 90.1 123 0 0 64.1 25.6 81.9-58.8C781.9 266.8 660.1 171 514.9 164.1z" fill="#A4BEFF" p-id="26538"></path><path d="M440.1 358.5a33.2 29 0 1 0 66.4 0 33.2 29 0 1 0-66.4 0Z" fill="#83A4FF" p-id="26539"></path><path d="M536.418053 368.541887a20.7 12.4 36.079 1 0 14.604724-20.043504 20.7 12.4 36.079 1 0-14.604724 20.043504Z" fill="#A4BEFF" p-id="26540"></path></svg>