<?xml version="1.0" standalone="no"?><!DOCTYPE svg PUBLIC "-//W3C//DTD SVG 1.1//EN" "http://www.w3.org/Graphics/SVG/1.1/DTD/svg11.dtd"><svg t="1637920644157" class="icon" viewBox="0 0 1024 1024" version="1.1" xmlns="http://www.w3.org/2000/svg" p-id="16080" xmlns:xlink="http://www.w3.org/1999/xlink" width="200" height="200"><defs><style type="text/css"></style></defs><path d="M535.19 75.72h57.66v91.52c108.7 0.61 217.51-1.12 326.11 0.51 23.39-2.23 41.7 16 39.36 39.36 1.73 190-0.41 380 1 570.08-1 20.54 2 43.32-9.76 61.52-14.85 10.77-34.16 9.35-51.55 10.17-101.69-0.51-203.38-0.31-305.17-0.31v101.69h-63.25c-155-28.27-310.26-54.1-465.33-81.35q-0.15-355.87 0-711.63c156.91-27.16 313.82-54.82 470.93-81.56z" fill="#733781" p-id="16081"></path><path d="M111 552.18v-124.3h34.8l20.87 84.78 20.64-84.78h34.84v124.3h-21.57v-97.84l-22.84 97.84h-22.37l-22.76-97.84v97.84zM245.23 552.18v-124.3h37.28q21.19 0 27.62 1.87 9.89 2.8 16.56 12.17t6.67 24.21q0 11.44-3.84 19.24a33.43 33.43 0 0 1-9.77 12.25 32.34 32.34 0 0 1-12 5.89q-8.32 1.79-24.09 1.79h-15.2v46.88z m23.23-103.27v35.27h12.72q13.73 0 18.36-1.95a15.49 15.49 0 0 0 7.26-6.11 17.68 17.68 0 0 0 2.63-9.66 16.84 16.84 0 0 0-3.69-11.19 15.77 15.77 0 0 0-9.34-5.51q-4.16-0.85-16.71-0.85zM346.78 519.2l21.34-2.8q1 8.82 5.49 13.49a14.77 14.77 0 0 0 22.33-0.93q4.66-5.6 4.67-15.09 0-9-4.47-14.24a13.84 13.84 0 0 0-10.91-5.26 35.72 35.72 0 0 0-10.12 1.79l2.43-19.41q8.94 0.25 13.65-4.2t4.71-11.83q0-6.27-3.46-10a11.9 11.9 0 0 0-9.18-3.73 12.8 12.8 0 0 0-9.66 4.24c-2.66 2.83-4.29 7-4.86 12.37l-20.33-3.72q2.12-11.28 6.4-18a29.52 29.52 0 0 1 11.93-10.61 37.68 37.68 0 0 1 17.15-3.85q16.24 0 26 11.19a30.42 30.42 0 0 1 8.11 20.64q0 16.36-16.55 26.11a26.58 26.58 0 0 1 15.81 10.26q5.93 8 5.93 19.25a38.8 38.8 0 0 1-11.06 27.9q-11.07 11.53-27.55 11.53-15.63 0-25.9-9.7t-11.9-25.4z" fill="#FFFFFF" p-id="16082"></path><path d="M688 548.33a39.47 39.47 0 1 0-39.47-39.47A39.47 39.47 0 0 0 688 548.33z m0-69.56a30.09 30.09 0 1 1-30.09 30.09A30.12 30.12 0 0 1 688 478.77z" fill="#FFFFFF" p-id="16083"></path><path d="M688 530.36a21.49 21.49 0 1 0-21.49-21.49A21.51 21.51 0 0 0 688 530.36zM696.18 461.14l11.39-49.9s-19-6-30.91 0l8.14 49.9z" fill="#FFFFFF" p-id="16084"></path><path d="M589.46 197.75v223.14A131.9 131.9 0 0 1 688 376.54c64.77 0 118.79 46.79 130.11 108.34L805.3 487c-10.3-55.4-58.96-97.45-117.3-97.45a119.26 119.26 0 0 0-98.58 52.2v27.45a106.26 106.26 0 0 1 203 19.84l-58.32 9.46v99a39 39 0 0 0-7.73 1.12c-9.72 2.43-17.38 8.12-21.64 15.2a107.36 107.36 0 0 1-16.73 1.35 106.27 106.27 0 0 1-98.58-66.64V576a119 119 0 0 0 111.61 51.48 23.27 23.27 0 0 0 0.58 4.73 20.39 20.39 0 0 0 3.28 7.9 131.31 131.31 0 0 1-115.47-43.24v221.19H925V197.75z m242.19 409c0 9.5-7.08 17.08-18.13 19.87-12.13 3-23.84-2.07-26.17-11.37s5.62-19.3 17.74-22.34a27.08 27.08 0 0 1 15.39 0.51V524.3l-62 11.34-0.29 86c-0.06 8.14-7.4 16.14-18 18.75-12 3-24.54-2.69-25.89-11.22-2.3-9.21 5.55-19.1 17.56-22.1a26.55 26.55 0 0 1 15.13 0.48V505.74L831.65 492z" fill="#FFFFFF" p-id="16085"></path></svg>