<?xml version="1.0" standalone="no"?><!DOCTYPE svg PUBLIC "-//W3C//DTD SVG 1.1//EN" "http://www.w3.org/Graphics/SVG/1.1/DTD/svg11.dtd"><svg t="1637920653763" class="icon" viewBox="0 0 1024 1024" version="1.1" xmlns="http://www.w3.org/2000/svg" p-id="16845" xmlns:xlink="http://www.w3.org/1999/xlink" width="200" height="200"><defs><style type="text/css"></style></defs><path d="M534.1 74.69h57.35v91c108.12 0.61 216.35-1.12 324.38 0.5 23.25-2.19 41.47 15.92 39.17 39.18 1.72 188.95-0.41 378 1 567-1 20.43 2 43.09-9.71 61.19-14.77 10.72-34 9.3-51.28 10.11-101.15-0.5-202.3-0.31-303.55-0.31v101.21h-62.94c-154.14-28.12-308.6-53.81-462.85-80.92q-0.15-354 0-707.84c156.08-27 312.15-54.52 468.43-81.12z" fill="#477DA7" p-id="16846"></path><path d="M112.19 548.6V425h34.58l20.76 84.33L188.07 425h34.66v123.6h-21.47v-97.31l-22.72 97.31H156.3l-22.64-97.32v97.32zM245.68 548.6V425h37.08q21.08 0 27.48 1.86 9.84 2.77 16.47 12.1t6.63 24.04q0 11.38-3.82 19.14a33.25 33.25 0 0 1-9.72 12.19 32.47 32.47 0 0 1-12 5.86q-8.28 1.76-24 1.77h-15.02v46.64z m23.1-102.71V481h12.65q13.66 0 18.26-1.94a15.41 15.41 0 0 0 7.22-6.07 17.56 17.56 0 0 0 2.62-9.61 16.77 16.77 0 0 0-3.67-11.13 15.68 15.68 0 0 0-9.29-5.48q-4.14-0.83-16.62-0.84zM390.48 548.6v-24.87h-46.84V503l49.65-78.51h18.42v78.41h14.2v20.83h-14.2v24.87z m0-45.7v-42.25l-26.31 42.25z" fill="#FFFFFF" p-id="16847"></path><path d="M804.322 502.66l9.232-32.11 32.11 9.232-9.232 32.109zM767.409 631.115l9.231-32.109 32.11 9.231-9.232 32.11zM617.6 588.06l9.23-32.1-32.1-9.23-6.65 23.13v9.71l29.52 8.49zM785.9 566.932l9.23-32.11 32.11 9.232-9.231 32.11z" fill="#FFFFFF" p-id="16848"></path><path d="M588.07 196.07v293.19l29.37-102.15c2.86-10 18.07-14 26.52-11.63l-4.62 16.05 32.11 9.23 4.62-16.05L825.9 427.8l-4.62 16.05 32.11 9.23L858 437c8.39 2.51 19.16 14 16.29 23.94l-62.08 215.97c-2.87 10-18.07 14-26.52 11.63l4.62-16.05-32.11-9.23-4.62 16.05-149.83-43.09 4.62-16.05-20.29-5.84v198.75h333.79v-617z" fill="#FFFFFF" p-id="16849"></path><path d="M603.934 514.575l9.232-32.109 32.109 9.232-9.231 32.109zM764.29 547.61l-72.68-75.91-29.22 101.62 101.9-25.71zM622.428 450.4l9.231-32.11 32.11 9.232-9.232 32.11z" fill="#FFFFFF" p-id="16850"></path></svg>