<?xml version="1.0" standalone="no"?><!DOCTYPE svg PUBLIC "-//W3C//DTD SVG 1.1//EN" "http://www.w3.org/Graphics/SVG/1.1/DTD/svg11.dtd"><svg t="1637920527953" class="icon" viewBox="0 0 1024 1024" version="1.1" xmlns="http://www.w3.org/2000/svg" p-id="9514" xmlns:xlink="http://www.w3.org/1999/xlink" width="200" height="200"><defs><style type="text/css"></style></defs><path d="M968.704 135.168h-430.08v752.64h430.08c15.36 0 26.624-12.288 26.624-26.624V162.816c0-15.36-11.264-27.648-26.624-27.648z" fill="#4CAF50" p-id="9515"></path><path d="M727.04 270.336h188.416v80.896H727.04z m0 268.288h188.416v80.896H727.04z m0 134.144h188.416v80.896H727.04z m0-268.288h188.416v80.896H727.04zM538.624 270.336h134.144v80.896H538.624z m0 268.288h134.144v80.896H538.624z m0 134.144h134.144v80.896H538.624z m0-268.288h134.144v80.896H538.624z" fill="#FFFFFF" p-id="9516"></path><path d="M592.896 996.352L28.672 888.832V135.168L592.896 27.648z" fill="#2E7D32" p-id="9517"></path><path d="M379.904 696.32l-63.488-119.808c-2.048-4.096-5.12-12.288-7.168-24.576H307.2c-1.024 6.144-4.096 14.336-8.192 25.6L235.52 696.32h-99.328l117.76-184.32-107.52-184.32h101.376l53.248 110.592c4.096 9.216 8.192 19.456 11.264 30.72h1.024c2.048-7.168 6.144-17.408 11.264-31.744L381.952 327.68h92.16L364.544 509.952 478.208 696.32h-98.304z" fill="#FFFFFF" p-id="9518"></path></svg>